<svg width="29" height="29" viewBox="0 0 29 29" fill="none" xmlns="http://www.w3.org/2000/svg">
<path d="M10.5221 5.491C11.3444 3.08475 14.6691 3.01188 15.644 5.27238L15.7265 5.49238L16.8361 8.73738C17.0904 9.48157 17.5014 10.1626 18.0412 10.7345C18.5811 11.3063 19.2373 11.7558 19.9656 12.0525L20.264 12.1639L23.509 13.2721C25.9153 14.0944 25.9881 17.4191 23.729 18.394L23.509 18.4765L20.264 19.5861C19.5196 19.8403 18.8383 20.2511 18.2662 20.791C17.694 21.3308 17.2444 21.9872 16.9475 22.7156L16.8361 23.0126L15.7279 26.259C14.9056 28.6653 11.5809 28.7381 10.6074 26.479L10.5221 26.259L9.4139 23.014C9.15977 22.2696 8.74891 21.5883 8.20904 21.0161C7.66917 20.444 7.01286 19.9944 6.2844 19.6975L5.9874 19.5861L2.7424 18.4779C0.334771 17.6556 0.261896 14.3309 2.5224 13.3574L2.7424 13.2721L5.9874 12.1639C6.73159 11.9096 7.4126 11.4986 7.98448 10.9588C8.55636 10.4189 9.00581 9.7627 9.30252 9.03437L9.4139 8.73738L10.5221 5.491ZM24.125 0.75C24.3823 0.75 24.6343 0.822158 24.8526 0.958273C25.0709 1.09439 25.2466 1.289 25.3598 1.52L25.4258 1.68088L25.907 3.09163L27.3191 3.57288C27.5769 3.66046 27.8029 3.8226 27.9685 4.03875C28.134 4.2549 28.2317 4.51533 28.249 4.78703C28.2664 5.05873 28.2027 5.32948 28.0661 5.56496C27.9294 5.80044 27.7259 5.99004 27.4814 6.10975L27.3191 6.17575L25.9084 6.657L25.4271 8.06913C25.3394 8.32684 25.1771 8.55271 24.9609 8.71811C24.7447 8.88352 24.4842 8.98101 24.2125 8.99824C23.9408 9.01547 23.6701 8.95166 23.4347 8.8149C23.1994 8.67813 23.0099 8.47457 22.8903 8.23L22.8243 8.06913L22.343 6.65837L20.9309 6.17713C20.6731 6.08954 20.4471 5.9274 20.2816 5.71125C20.116 5.4951 20.0184 5.23468 20.001 4.96297C19.9836 4.69127 20.0473 4.42052 20.184 4.18504C20.3206 3.94957 20.5241 3.75996 20.7686 3.64025L20.9309 3.57425L22.3416 3.093L22.8229 1.68088C22.9156 1.40921 23.091 1.17337 23.3245 1.00644C23.5581 0.839497 23.838 0.749828 24.125 0.75Z" fill="#382D5E"/>
</svg>
