<svg xmlns="http://www.w3.org/2000/svg" version="1.1" xmlns:xlink="http://www.w3.org/1999/xlink" xmlns:svgjs="http://svgjs.dev/svgjs" viewBox="0 0 10.247981119967873 3.6008878653404626"><g transform="matrix(0.7572908400294013,0,0,0.7572908400294013,3.8769107810055288,1.1525071700879934)"><g transform="matrix(1,0,0,1,0,0)" clip-path="url(#SvgjsClipPath72849)"><g clip-path="url(#SvgjsClipPath72847518c1fe6-ae31-4202-a7d4-60044d559aab)"><path d=" M -0.4327522800688053 1.2547062399607158 C -0.4327522800688053 1.4121925618366364 -0.5606530212454919 1.5400933030133228 -0.7181393431214125 1.5400933030133228 L -1.9420720585097067 1.5400933030133228 L -1.9912296387484334 1.6006299527517547 L -0.7181393431214125 1.6006299527517547 C -0.5274261383063528 1.6006299527517547 -0.3722156303303734 1.4454194447757753 -0.3722156303303734 1.2547062399607158 L -0.3722156303303734 0.9060515504897477 C -0.3904221415299016 0.937002619528946 -0.4109044666293711 0.9670433630081676 -0.4327522800688053 0.9957186181474249 L -0.4327522800688053 1.2547062399607158 Z" fill="#0094ff" transform="matrix(1,0,0,1,0,0)" fill-rule="nonzero"></path></g><g clip-path="url(#SvgjsClipPath72847518c1fe6-ae31-4202-a7d4-60044d559aab)"><path d=" M -2.278437352920993 0.1022340810305703 C -2.278437352920993 -0.05525224084535002 -2.1505366117443065 -0.18315298202203684 -1.9930502898683864 -0.18315298202203684 L -1.776847969373987 -0.18315298202203684 C -1.7554553187145412 -0.20454563268148263 -1.733152342495119 -0.22457279500096386 -1.7099390407157202 -0.24368963176046862 L -1.9930502898683864 -0.24368963176046862 C -2.183763494683446 -0.24368963176046862 -2.338974002659425 -0.0884791237844893 -2.338974002659425 0.1022340810305703 L -2.338974002659425 1.1304468010239348 L -2.278437352920993 1.0967647553048072 L -2.278437352920993 0.1022340810305703 Z" fill="#0094ff" transform="matrix(1,0,0,1,0,0)" fill-rule="nonzero"></path></g><g clip-path="url(#SvgjsClipPath72847518c1fe6-ae31-4202-a7d4-60044d559aab)"><path d=" M -0.3644778630705736 0.20054924150802345 C -0.4245593500290177 0.013477338932869565 -0.550184277305763 -0.14446414572303903 -0.7149532036614947 -0.24642060844039787 C -0.8332955264584294 -0.31970181601849956 -0.9721201743548331 -0.36339744289736764 -1.1214135661909652 -0.36749390791726155 C -1.270706958027098 -0.3715903729371554 -1.411807419823443 -0.3356325133180869 -1.534246207640271 -0.26917874743980835 C -1.5688385789193748 -0.2505170734602918 -1.6016102990785261 -0.22912442280084597 -1.6330165308977123 -0.20591112102144726 C -1.637112995917606 -0.20318014434151802 -1.6407542981575118 -0.19999400488160057 -1.6448507631774059 -0.1972630282016713 C -1.8328329913125363 -0.05206610138543255 -1.9561821046893408 0.17278431192874277 -1.9634647091691524 0.4285857942821164 C -1.967106011409058 0.5651346282785792 -1.9375204307098244 0.6944008577952305 -1.8815354087712746 0.809101878352259 L -1.6002448107385614 0.6725530443557963 C -1.6348371820176653 0.6015476506776356 -1.6534988559971817 0.5214390013997109 -1.6507678793172527 0.43723388710189226 C -1.643030112057453 0.15730877740914373 -1.4099867687034902 -0.06299000810514965 -1.130061659010741 -0.05525224084535013 C -0.8501365493179929 -0.04751447358555044 -0.6298377638036992 0.18552886976841254 -0.6375755310634985 0.4654539794611612 C -0.6453132983232979 0.7453790891539098 -0.8783566416772612 0.9656778746682027 -1.1582817513700099 0.9579401074084033 C -1.236114586747994 0.955664293508462 -1.309395794326095 0.9360922939689693 -1.374484071864409 0.9028654110298298 L -1.5164948592207306 1.1814250323826139 C -1.4113522570434542 1.2351342404212224 -1.2930099342465198 1.2669956350203972 -1.1669298441897857 1.2701817744803148 C -0.8619707815976856 1.2788298673000904 -0.5916040902846893 1.1195228943042173 -0.44413134956850975 0.8764659697905137 C -0.4300213033888749 0.853252668011115 -0.416821582769217 0.8286738778917517 -0.4049873504895234 0.8040950877723887 C -0.3958840948897593 0.7849782510128838 -0.387236002069983 0.7654062514733908 -0.37949823481018363 0.7453790891539098 C -0.3471816774310206 0.6611739748560912 -0.32806484067151587 0.5696862560784611 -0.32533386399158637 0.4745572350609254 C -0.32260288731165687 0.37942821404338967 -0.3367129334912935 0.2865750069257951 -0.3644778630705736 0.20054924150802345 Z" fill="#6f185f" transform="matrix(1,0,0,1,0,0)" fill-rule="nonzero"></path></g><g clip-path="url(#SvgjsClipPath72847518c1fe6-ae31-4202-a7d4-60044d559aab)"><path d=" M -1.1587369141499986 0.6962215089151833 C -1.0235535684935002 0.7039592761749827 -0.9079422223764952 0.6006373251176594 -0.9002044551166959 0.46590914224114954 C -0.8924666878568961 0.3307257965846516 -0.9957886389142203 0.21511445046764643 -1.1305168217907302 0.20737668320784686 C -1.2657001674472281 0.1996389159480474 -1.3813115135642335 0.3029608670053707 -1.389049280824033 0.43768904988188073 C -1.391325094723974 0.4781985373008314 -1.3835873274641746 0.5173425363798173 -1.368111792944575 0.5519349076589212 L -1.1446268679703644 0.45179909606151514 L -1.2620588652073226 0.6661807654359615 C -1.231107796168124 0.6834769510755134 -1.196060262109032 0.6939456950152423 -1.1587369141499986 0.6962215089151833 Z" fill="#6f185f" transform="matrix(1,0,0,1,0,0)" fill-rule="nonzero"></path></g><g clip-path="url(#SvgjsClipPath72847518c1fe6-ae31-4202-a7d4-60044d559aab)"><path d=" M -2.2811683296009226 1.1877973113024491 L -2.3412498165593663 1.2223896825815528 L -2.900189710384887 1.5446449308132049 L -2.3867660945581872 1.5582998142128512 L -2.4632334415962065 2.079006034519363 L -2.086358659765969 1.5997196271917786 L -2.038111405087219 1.538727814673358 L -1.3312436077655299 0.6397813241966452 Z" fill="#6f185f" transform="matrix(1,0,0,1,0,0)" fill-rule="nonzero"></path></g><g clip-path="url(#SvgjsClipPath72847518c1fe6-ae31-4202-a7d4-60044d559aab)"><path d=" M -2.2811683296009226 1.1877973113024491 L -2.3412498165593663 1.2223896825815528 L -2.900189710384887 1.5446449308132049 L -2.3935935362580105 1.5582998142128512 L -1.3312436077655299 0.6397813241966452 Z" fill="#6f185f" transform="matrix(1,0,0,1,0,0)" fill-rule="nonzero"></path></g><g clip-path="url(#SvgjsClipPath72847518c1fe6-ae31-4202-a7d4-60044d559aab)"><path d=" M -2.3935935362580105 1.5582998142128512 L -2.3867660945581872 1.5582998142128512 L -2.4632334415962065 2.079006034519363 L -2.086358659765969 1.5997196271917786 L -2.038111405087219 1.538727814673358 L -1.3312436077655299 0.6397813241966452 Z" fill="#be4bad" transform="matrix(1,0,0,1,0,0)" fill-rule="nonzero"></path></g></g><g><path d=" M 0.098302734375 0.988201171875 L 0.22635498046875 0.988201171875 L 0.22635498046875 0.234762451171875 L 0.08924853515625 0.35570068359374996 L 0.01681494140625 0.270979248046875 L 0.26774560546875 0.00970092773437492 L 0.392564208984375 0.00970092773437492 L 0.39191748046875 0.010994384765624865 L 0.392564208984375 0.010347656250000004 L 0.392564208984375 0.988201171875 L 0.5199697265625 0.988201171875 L 0.5199697265625 1.114313232421875 L 0.098302734375 1.114313232421875 L 0.098302734375 0.988201171875 M 0.5956369628906251 0.998548828125 Q 0.5956369628906251 0.9299956054687499 0.622799560546875 0.90024609375 Q 0.649962158203125 0.87049658203125 0.696526611328125 0.87049658203125 Q 0.74503125 0.87049658203125 0.771547119140625 0.902186279296875 Q 0.79806298828125 0.9338759765625 0.79806298828125 0.998548828125 Q 0.79806298828125 1.0580478515625 0.7712237548828125 1.0907076416015624 Q 0.744384521484375 1.123367431640625 0.6958798828125 1.123367431640625 Q 0.649962158203125 1.123367431640625 0.622799560546875 1.091677734375 Q 0.5956369628906251 1.059988037109375 0.5956369628906251 0.998548828125 M 0.9170610351562501 0.7786611328124999 Q 0.9170610351562501 0.7301564941406249 0.92740869140625 0.6926462402343749 Q 0.93775634765625 0.655135986328125 0.9561881103515626 0.626679931640625 Q 0.9746198730468751 0.598223876953125 0.9998422851562501 0.5778519287109375 Q 1.0250646972656252 0.5574799804687499 1.0541674804687502 0.542605224609375 L 1.0541674804687502 0.537431396484375 Q 1.032825439453125 0.5257902832031249 1.0111600341796876 0.50832861328125 Q 0.9894946289062501 0.490866943359375 0.9720329589843751 0.4653211669921875 Q 0.9545712890625001 0.43977539062499993 0.9435769042968751 0.4051754150390625 Q 0.93258251953125 0.370575439453125 0.93258251953125 0.325951171875 L 0.93258251953125 0.24834374999999997 Q 0.93258251953125 0.19466528320312493 0.9455170898437502 0.15521484374999994 Q 0.95845166015625 0.11576440429687496 0.9794703369140626 0.08795507812500003 Q 1.0004890136718751 0.06014575195312499 1.0282983398437502 0.04300744628906239 Q 1.0561076660156252 0.02586914062500001 1.0855338134765626 0.016168212890624867 Q 1.1149599609375 0.006467285156249947 1.1443861083984377 0.0032336425781249734 Q 1.173812255859375 0 1.1983879394531252 0 Q 1.2236103515625 0 1.252713134765625 0.0032336425781249734 Q 1.28181591796875 0.006467285156249947 1.3115654296875001 0.016168212890624867 Q 1.3413149414062502 0.02586914062500001 1.3688009033203126 0.04300744628906239 Q 1.3962868652343752 0.06014575195312499 1.41762890625 0.08763171386718738 Q 1.4389709472656251 0.11511767578124998 1.4519055175781252 0.15456811523437497 Q 1.4648400878906251 0.19401855468749996 1.4648400878906251 0.247697021484375 L 1.4648400878906251 0.3253044433593749 Q 1.4648400878906251 0.3699287109374999 1.453845703125 0.40452868652343743 Q 1.442851318359375 0.43912866210937496 1.4253896484375002 0.4646744384765624 Q 1.4079279785156251 0.49022021484375 1.3862625732421876 0.5076818847656249 Q 1.36459716796875 0.5251435546875 1.343255126953125 0.5367846679687499 L 1.343255126953125 0.5419584960937499 Q 1.373004638671875 0.5568332519531249 1.3979036865234375 0.5772052001953124 Q 1.4228027343750003 0.5975771484375 1.4412344970703126 0.626033203125 Q 1.4596662597656251 0.6544892578124999 1.4700139160156251 0.69199951171875 Q 1.4803615722656251 0.729509765625 1.4803615722656251 0.778014404296875 L 1.4803615722656251 0.8459208984375 Q 1.4803615722656251 0.9028330078125 1.4687204589843752 0.9455170898437499 Q 1.457079345703125 0.988201171875 1.4367073974609377 1.019244140625 Q 1.41633544921875 1.050287109375 1.3891728515625001 1.070335693359375 Q 1.36201025390625 1.09038427734375 1.3306439208984375 1.1023487548828124 Q 1.299277587890625 1.114313232421875 1.2653243408203125 1.1191636962890625 Q 1.23137109375 1.1240141601562499 1.1977412109375 1.1240141601562499 Q 1.1641113281250002 1.1240141601562499 1.1304814453125 1.1191636962890625 Q 1.0968515625000002 1.114313232421875 1.0654852294921877 1.102672119140625 Q 1.034118896484375 1.091031005859375 1.006956298828125 1.0706590576171875 Q 0.9797937011718751 1.050287109375 0.9600684814453126 1.0195675048828126 Q 0.9403432617187502 0.988847900390625 0.9287021484375001 0.946163818359375 Q 0.9170610351562501 0.903479736328125 0.9170610351562501 0.846567626953125 L 0.9170610351562501 0.7786611328124999 M 1.206148681640625 0.48310620117187497 Q 1.22490380859375 0.48310620117187497 1.2413953857421876 0.47696228027343746 Q 1.257886962890625 0.47081835937499994 1.2701748046875 0.4559436035156249 Q 1.2824626464843751 0.44106884765625 1.2895766601562502 0.41584643554687495 Q 1.2966906738281252 0.3906240234374999 1.2966906738281252 0.352467041015625 L 1.2966906738281252 0.2612783203125 Q 1.2966906738281252 0.19272509765625 1.2737318115234375 0.15715502929687497 Q 1.25077294921875 0.12158496093749993 1.1983879394531252 0.12158496093749993 Q 1.1460029296875 0.12158496093749993 1.1236907958984377 0.15780175781249994 Q 1.101378662109375 0.19401855468749996 1.101378662109375 0.2625717773437499 L 1.101378662109375 0.35311376953124995 Q 1.101378662109375 0.38997729492187494 1.1075225830078126 0.41487634277343743 Q 1.11366650390625 0.43977539062499993 1.1253076171875 0.4549735107421875 Q 1.1369487304687502 0.47017163085937497 1.1534403076171875 0.4766389160156249 Q 1.169931884765625 0.48310620117187497 1.190627197265625 0.48310620117187497 L 1.206148681640625 0.48310620117187497 M 1.087150634765625 0.86014892578125 Q 1.087150634765625 0.902186279296875 1.0965281982421877 0.9290255126953124 Q 1.1059057617187502 0.9558647460937499 1.1211038818359376 0.9710628662109375 Q 1.1363020019531251 0.986260986328125 1.1563505859375 0.99208154296875 Q 1.1763991699218752 0.9979020996093749 1.1977412109375 0.9979020996093749 Q 1.2190832519531252 0.9979020996093749 1.2394552001953125 0.99208154296875 Q 1.2598271484375 0.986260986328125 1.2753486328125 0.970739501953125 Q 1.2908701171875 0.955218017578125 1.300571044921875 0.9283787841796874 Q 1.3102719726562502 0.90153955078125 1.3102719726562502 0.8595021972656249 L 1.3102719726562502 0.737917236328125 Q 1.3102719726562502 0.701700439453125 1.3028345947265625 0.6761546630859374 Q 1.295397216796875 0.65060888671875 1.28181591796875 0.6341173095703125 Q 1.268234619140625 0.617625732421875 1.2488327636718752 0.6101883544921874 Q 1.2294309082031252 0.6027509765625 1.206148681640625 0.6027509765625 L 1.1899804687500002 0.6027509765625 Q 1.142769287109375 0.6027509765625 1.1149599609375 0.6354107666015625 Q 1.087150634765625 0.668070556640625 1.087150634765625 0.73856396484375 L 1.087150634765625 0.86014892578125 M 1.60259326171875 0.3253044433593749 Q 1.60259326171875 0.252870849609375 1.6158511962890625 0.20016247558593747 Q 1.629109130859375 0.14745410156249994 1.6507745361328126 0.11156066894531236 Q 1.67243994140625 0.075667236328125 1.70089599609375 0.053678466796875046 Q 1.72935205078125 0.03168969726562487 1.7594249267578126 0.019725219726562493 Q 1.789497802734375 0.007760742187499892 1.8195706787109376 0.003880371093750057 Q 1.8496435546875 0 1.874865966796875 0 Q 1.898794921875 0 1.9282210693359376 0.003557006835937404 Q 1.957647216796875 0.00711401367187503 1.9877200927734375 0.018431762695312548 Q 2.0177929687500002 0.029749511718750066 2.0459256591796877 0.051414916992187365 Q 2.074058349609375 0.07308032226562489 2.0957237548828127 0.1092971191406249 Q 2.1173891601562502 0.1455139160156249 2.1306470947265623 0.19854565429687498 Q 2.1439050292968753 0.25157739257812495 2.1439050292968753 0.3253044433593749 L 2.1439050292968753 0.7922424316406249 Q 2.1439050292968753 0.8646760253906249 2.1306470947265623 0.9173843994140625 Q 2.1173891601562502 0.9700927734375 2.095400390625 1.0069562988281249 Q 2.07341162109375 1.04381982421875 2.04495556640625 1.0667786865234374 Q 2.01649951171875 1.089737548828125 1.98675 1.1023487548828124 Q 1.95700048828125 1.1149599609375 1.9275743408203125 1.119487060546875 Q 1.8981481933593751 1.1240141601562499 1.874865966796875 1.1240141601562499 Q 1.848996826171875 1.1240141601562499 1.8186005859375 1.119487060546875 Q 1.7882043457031251 1.1149599609375 1.75780810546875 1.1023487548828124 Q 1.727411865234375 1.089737548828125 1.6992791748046876 1.0671020507812499 Q 1.6711464843750001 1.044466552734375 1.649804443359375 1.00760302734375 Q 1.6284624023437502 0.970739501953125 1.61552783203125 0.9177077636718749 Q 1.60259326171875 0.8646760253906249 1.60259326171875 0.7922424316406249 L 1.60259326171875 0.3253044433593749 M 1.773976318359375 0.8627358398437499 Q 1.773976318359375 0.9312890625 1.7988753662109376 0.96233203125 Q 1.8237744140625 0.993375 1.874865966796875 0.993375 Q 1.9246640625 0.993375 1.94923974609375 0.96233203125 Q 1.9738154296875001 0.9312890625 1.9738154296875001 0.8627358398437499 L 1.9738154296875001 0.26451196289062495 Q 1.9738154296875001 0.19207836914062493 1.94923974609375 0.15909521484375 Q 1.9246640625 0.12611206054687496 1.874865966796875 0.12611206054687496 Q 1.8237744140625 0.12611206054687496 1.7988753662109376 0.15909521484375 Q 1.773976318359375 0.19207836914062493 1.773976318359375 0.26451196289062495 L 1.773976318359375 0.8627358398437499 M 2.279718017578125 0.3253044433593749 Q 2.279718017578125 0.252870849609375 2.2929759521484376 0.20016247558593747 Q 2.30623388671875 0.14745410156249994 2.3278992919921873 0.11156066894531236 Q 2.349564697265625 0.075667236328125 2.378020751953125 0.053678466796875046 Q 2.406476806640625 0.03168969726562487 2.4365496826171875 0.019725219726562493 Q 2.46662255859375 0.007760742187499892 2.4966954345703125 0.003880371093750057 Q 2.526768310546875 0 2.55199072265625 0 Q 2.575919677734375 0 2.6053458251953123 0.003557006835937404 Q 2.63477197265625 0.00711401367187503 2.6648448486328125 0.018431762695312548 Q 2.694917724609375 0.029749511718750066 2.7230504150390624 0.051414916992187365 Q 2.75118310546875 0.07308032226562489 2.7728485107421874 0.1092971191406249 Q 2.794513916015625 0.1455139160156249 2.8077718505859375 0.19854565429687498 Q 2.82102978515625 0.25157739257812495 2.82102978515625 0.3253044433593749 L 2.82102978515625 0.7922424316406249 Q 2.82102978515625 0.8646760253906249 2.8077718505859375 0.9173843994140625 Q 2.794513916015625 0.9700927734375 2.7725251464843748 1.0069562988281249 Q 2.750536376953125 1.04381982421875 2.722080322265625 1.0667786865234374 Q 2.693624267578125 1.089737548828125 2.663874755859375 1.1023487548828124 Q 2.634125244140625 1.1149599609375 2.6046990966796875 1.119487060546875 Q 2.57527294921875 1.1240141601562499 2.55199072265625 1.1240141601562499 Q 2.52612158203125 1.1240141601562499 2.495725341796875 1.119487060546875 Q 2.4653291015625 1.1149599609375 2.434932861328125 1.1023487548828124 Q 2.40453662109375 1.089737548828125 2.3764039306640625 1.0671020507812499 Q 2.348271240234375 1.044466552734375 2.32692919921875 1.00760302734375 Q 2.305587158203125 0.970739501953125 2.292652587890625 0.9177077636718749 Q 2.279718017578125 0.8646760253906249 2.279718017578125 0.7922424316406249 L 2.279718017578125 0.3253044433593749 M 2.45110107421875 0.8627358398437499 Q 2.45110107421875 0.9312890625 2.4760001220703125 0.96233203125 Q 2.500899169921875 0.993375 2.55199072265625 0.993375 Q 2.601788818359375 0.993375 2.626364501953125 0.96233203125 Q 2.650940185546875 0.9312890625 2.650940185546875 0.8627358398437499 L 2.650940185546875 0.26451196289062495 Q 2.650940185546875 0.19207836914062493 2.626364501953125 0.15909521484375 Q 2.601788818359375 0.12611206054687496 2.55199072265625 0.12611206054687496 Q 2.500899169921875 0.12611206054687496 2.4760001220703125 0.15909521484375 Q 2.45110107421875 0.19207836914062493 2.45110107421875 0.26451196289062495 L 2.45110107421875 0.8627358398437499 M 2.94778857421875 0.998548828125 Q 2.94778857421875 0.9299956054687499 2.9749511718750004 0.90024609375 Q 3.0021137695312503 0.87049658203125 3.04867822265625 0.87049658203125 Q 3.097182861328125 0.87049658203125 3.12369873046875 0.902186279296875 Q 3.150214599609375 0.9338759765625 3.150214599609375 0.998548828125 Q 3.150214599609375 1.0580478515625 3.123375366210938 1.0907076416015624 Q 3.0965361328125 1.123367431640625 3.0480314941406252 1.123367431640625 Q 3.0021137695312503 1.123367431640625 2.9749511718750004 1.091677734375 Q 2.94778857421875 1.059988037109375 2.94778857421875 0.998548828125 M 3.30736962890625 0.00970092773437492 L 3.474872314453125 0.00970092773437492 L 3.474872314453125 0.47211181640625 L 3.67341796875 0.47211181640625 L 3.67341796875 0.00970092773437492 L 3.840920654296875 0.00970092773437492 L 3.840920654296875 1.114313232421875 L 3.67341796875 1.114313232421875 L 3.67341796875 0.6040444335937499 L 3.474872314453125 0.6040444335937499 L 3.474872314453125 1.114313232421875 L 3.30736962890625 1.114313232421875 L 3.30736962890625 0.00970092773437492 M 4.031058837890625 0.00970092773437492 L 4.1985615234375 0.00970092773437492 L 4.1985615234375 1.114313232421875 L 4.031058837890625 1.114313232421875 L 4.031058837890625 0.00970092773437492 M 4.38740625 0.00970092773437492 L 4.569136962890624 0.00970092773437492 Q 4.600179931640625 0.00970092773437492 4.637366821289062 0.012287841796875032 Q 4.6745537109374995 0.014874755859374922 4.711740600585937 0.024899047851562495 Q 4.748927490234374 0.03492333984375007 4.783527465820312 0.05497192382812499 Q 4.81812744140625 0.07502050781249991 4.844966674804687 0.10994384765624998 Q 4.871805908203124 0.14486718749999994 4.88797412109375 0.19757556152343747 Q 4.904142333984375 0.250283935546875 4.904142333984375 0.3253044433593749 L 4.904142333984375 0.35311376953124995 Q 4.904142333984375 0.4792258300781249 4.867925537109374 0.5584500732421874 Q 4.831708740234374 0.6376743164062499 4.76121533203125 0.67259765625 L 4.9384189453125 1.114313232421875 L 4.76121533203125 1.114313232421875 L 4.6144079589843745 0.7010537109374999 L 4.551675292968749 0.7010537109374999 L 4.551675292968749 1.114313232421875 L 4.38740625 1.114313232421875 L 4.38740625 0.00970092773437492 M 4.5768977050781245 0.580115478515625 Q 4.620875244140625 0.580115478515625 4.651271484374999 0.5704145507812499 Q 4.681667724609374 0.560713623046875 4.700422851562499 0.5377547607421874 Q 4.719177978515624 0.5147958984375 4.72758544921875 0.47696228027343746 Q 4.735992919921874 0.43912866210937496 4.735992919921874 0.383510009765625 L 4.735992919921874 0.29620166015624994 Q 4.735992919921874 0.253517578125 4.728232177734375 0.22247460937499997 Q 4.720471435546875 0.19143164062499995 4.702039672851562 0.17138305664062492 Q 4.683607910156249 0.15133447265625 4.653211669921874 0.14163354492187497 Q 4.6228154296875 0.13193261718749993 4.5768977050781245 0.13193261718749993 L 4.551675292968749 0.13193261718749993 L 4.551675292968749 0.580115478515625 L 4.5768977050781245 0.580115478515625 M 5.065177734375 0.00970092773437492 L 5.474556884765625 0.00970092773437492 L 5.474556884765625 0.14163354492187497 L 5.232680419921875 0.14163354492187497 L 5.232680419921875 0.47211181640625 L 5.4195849609375 0.47211181640625 L 5.4195849609375 0.6040444335937499 L 5.232680419921875 0.6040444335937499 L 5.232680419921875 0.982380615234375 L 5.481024169921875 0.982380615234375 L 5.481024169921875 1.114313232421875 L 5.065177734375 1.114313232421875 L 5.065177734375 0.00970092773437492 M 5.60196240234375 0.00970092773437492 L 5.775932373046874 0.00970092773437492 Q 5.815382812499999 0.00970092773437492 5.857743530273437 0.01196447753906238 Q 5.900104248046874 0.01422802734375006 5.940524780273437 0.02586914062500001 Q 5.980945312499999 0.03751025390624996 6.016838745117187 0.06176257324218737 Q 6.0527321777343746 0.086014892578125 6.079894775390625 0.12966906738281248 Q 6.1070573730468745 0.17332324218749995 6.122902221679687 0.23961291503906246 Q 6.138747070312499 0.30590258789062497 6.138747070312499 0.401618408203125 L 6.138747070312499 0.722395751953125 Q 6.138747070312499 0.8181115722656249 6.122902221679687 0.884724609375 Q 6.1070573730468745 0.951337646484375 6.079894775390625 0.99466845703125 Q 6.0527321777343746 1.0379992675781249 6.016838745117187 1.0622515869140625 Q 5.980945312499999 1.08650390625 5.940524780273437 1.0981450195312499 Q 5.900104248046874 1.1097861328125 5.857743530273437 1.1120496826171875 Q 5.815382812499999 1.114313232421875 5.775932373046874 1.114313232421875 L 5.60196240234375 1.114313232421875 L 5.60196240234375 0.00970092773437492 M 5.812149169921875 0.99725537109375 Q 5.857420166015625 0.99725537109375 5.886846313476562 0.9856142578125 Q 5.9162724609375 0.97397314453125 5.933410766601562 0.9445469970703124 Q 5.950549072265624 0.915120849609375 5.957016357421875 0.8643526611328125 Q 5.963483642578124 0.81358447265625 5.963483642578124 0.73597705078125 L 5.963483642578124 0.3932109374999999 Q 5.963483642578124 0.315603515625 5.957016357421875 0.2648353271484375 Q 5.950549072265624 0.214067138671875 5.933410766601562 0.18464099121093747 Q 5.9162724609375 0.15521484374999994 5.886846313476562 0.14357373046875 Q 5.857420166015625 0.13193261718749993 5.812149169921875 0.13193261718749993 L 5.769465087890625 0.13193261718749993 L 5.769465087890625 0.99725537109375 L 5.812149169921875 0.99725537109375" fill="#1a4cff" fill-rule="nonzero"></path></g><g><path d=" M 0.13341197620738637 1.624220855646307 L 0.1351318359375 1.6957178815696023 Q 0.1351318359375 1.7067741226917614 0.12456698330965908 1.7107052306463069 Q 0.12186434659090908 1.7116880076349434 0.11817893288352273 1.7116880076349434 Q 0.11449351917613636 1.7116880076349434 0.11031671697443182 1.7076340525568183 Q 0.10613991477272727 1.7035800974786934 0.10687699751420454 1.6948579517045457 Q 0.10761408025568181 1.686135805930398 0.10859685724431818 1.6775365072798296 Q 0.10957963423295454 1.6689372086292615 0.11031671697443182 1.6600922157315343 Q 0.11203657670454545 1.6394538989701706 0.11203657670454545 1.6279062693536934 Q 0.11203657670454545 1.616358639737216 0.11179088245738636 1.608005035333807 Q 0.11154518821022727 1.599651430930398 0.11105379971590909 1.5908064380326705 Q 0.11080810546875 1.583681304865057 0.11031671697443182 1.5748363119673296 Q 0.10220880681818181 1.5541979952059661 0.09238103693181818 1.5308570417258525 Q 0.07985063032670454 1.5003909550781251 0.06633744673295454 1.467467925958807 Q 0.010810546875 1.3338102555042615 0.010810546875 1.3227540143821024 Q 0.010810546875 1.316611658203125 0.014495960582386364 1.3129262444957388 Q 0.018181374289772727 1.3092408307883523 0.023955189098011365 1.3089951365411934 Q 0.02972900390625 1.3087494422940342 0.03292302911931818 1.3128033973721593 Q 0.036117054332386364 1.3168573524502842 0.04238225763494318 1.338478446200284 Q 0.0486474609375 1.3600995399502842 0.06093217329545454 1.3941281931818184 Q 0.07321688565340909 1.4281568464133525 0.08574729225852272 1.4591143215553979 Q 0.10220880681818181 1.500145260830966 0.12284712357954546 1.546335779296875 Q 0.1265325372869318 1.5362623151633525 0.13070933948863636 1.5249603797940343 Q 0.13783447265624998 1.5065333112571024 0.14532814719460227 1.4862635358664775 Q 0.15282182173295455 1.4659937604758524 0.1605611905184659 1.4447412080965911 Q 0.16830055930397728 1.4234886557173296 0.1754256924715909 1.4030960332031253 Q 0.19262428977272728 1.3532201010298297 0.19729248046875 1.336635739346591 Q 0.20196067116477273 1.3200513776633525 0.2051546963778409 1.3137861743607955 Q 0.2083487215909091 1.3075209710582387 0.21473677201704544 1.3075209710582387 Q 0.22653009588068182 1.3075209710582387 0.22653009588068182 1.319068600674716 Q 0.22653009588068182 1.3279135935724433 0.2089629572088068 1.3736127235440343 Q 0.19139581853693183 1.4193118535156253 0.18635908647017047 1.433684966974432 Q 0.18132235440340908 1.4480580804332388 0.17665416370738637 1.460711334161932 Q 0.17198597301136365 1.4733645878906252 0.16658069957386362 1.487737701349432 Q 0.16117542613636363 1.5021108148082387 0.155401611328125 1.517221011008523 Q 0.14962779651988636 1.532331207208807 0.14446821732954546 1.5460900850497161 Q 0.13857155539772728 1.5608317398792615 0.13464044744318182 1.5709052040127842 Q 0.13341197620738637 1.6146387800071025 0.13341197620738637 1.624220855646307 M 0.46549723455255676 1.7168475868252842 Q 0.4141471368963068 1.7168475868252842 0.3899462535511363 1.6637776294389206 Q 0.36574537020596587 1.610707672052557 0.36574537020596587 1.5070246997514207 Q 0.36574537020596587 1.4252085154474434 0.39350882013494315 1.3696816155894889 Q 0.40726769797585227 1.342655248401989 0.42692323774857954 1.3265622752130684 Q 0.4465787775213068 1.3104693020241478 0.4722538263494318 1.3104693020241478 Q 0.4979288751775568 1.3104693020241478 0.5170930264559659 1.3238596384943184 Q 0.536257177734375 1.3372499749644888 0.5487875843394886 1.3625564824218752 Q 0.5733570090553977 1.4121867203480116 0.573848397549716 1.5070246997514207 Q 0.574339786044034 1.6067765640980116 0.5453478648792613 1.6623034639559662 Q 0.5168473322088067 1.7168475868252842 0.46549723455255676 1.7168475868252842 M 0.498420263671875 1.339338376065341 Q 0.4868726340553977 1.332090395774148 0.47286806196732956 1.332090395774148 Q 0.45886348987926134 1.332090395774148 0.44756155450994317 1.339338376065341 Q 0.43625961914062494 1.3465863563565343 0.42704608487215906 1.359362457208807 Q 0.4178325506036932 1.3721385580610796 0.4108302645596591 1.3894600024857957 Q 0.40382797851562496 1.4067814469105115 0.3989140935724432 1.4266826809303979 Q 0.3893320179332386 1.467467925958807 0.3893320179332386 1.5081303238636365 Q 0.3893320179332386 1.548792721768466 0.3924031960227272 1.5763104774502843 Q 0.39547437411221587 1.6038282331321025 0.4008796475497159 1.6238523142755683 Q 0.4062849209872159 1.6438763954190343 0.41377859552556817 1.6572667318892047 Q 0.42127227006392043 1.670657068359375 0.4298715687144886 1.6787649785156251 Q 0.4458416947798295 1.6932609390980116 0.4679541770241477 1.6932609390980116 Q 0.5333088467684659 1.6932609390980116 0.5473134188565341 1.573116452237216 Q 0.5505074440696023 1.5455986965553978 0.5505074440696023 1.5170981638849432 Q 0.5505074440696023 1.4885976312144888 0.5487875843394886 1.467222231711648 Q 0.5470677246093749 1.445846832208807 0.5432594637784091 1.4260684453125 Q 0.5394512029474432 1.4062900584161933 0.5334316938920454 1.3890914611150569 Q 0.5274121848366478 1.3718928638139207 0.5186900390625 1.3592396100852273 Q 0.5099678932883522 1.3465863563565343 0.498420263671875 1.339338376065341 M 0.7452496182528409 1.583926999112216 L 0.745741006747159 1.4799983325639205 Q 0.745741006747159 1.3915484035866479 0.7400900390624999 1.3301248417968752 Q 0.7393529563210226 1.3222626258877843 0.7440211470170454 1.3184543650568183 Q 0.7486893377130681 1.3146461042258524 0.7547088467684658 1.3146461042258524 Q 0.7607283558238636 1.3146461042258524 0.7656422407670453 1.3184543650568183 Q 0.7705561257102271 1.3222626258877843 0.7700647372159091 1.3351615738636364 Q 0.7695733487215908 1.3480605218394888 0.7689591131036931 1.3678389087357956 Q 0.7683448774857954 1.3876172956321025 0.7678534889914772 1.4097297778764206 Q 0.7668707120028408 1.453954742365057 0.7668707120028408 1.4898261024502841 Q 0.7668707120028408 1.5256974625355115 0.7669935591264204 1.5388421047585228 Q 0.7671164062499999 1.5519867469815343 0.767362100497159 1.5642714593394889 Q 0.7685905717329544 1.629626129083807 0.7747329279119317 1.6470704206321025 Q 0.780875284090909 1.6645147121803978 0.788983194247159 1.6738510935724433 Q 0.805199014559659 1.6925238563565344 0.8307512162642045 1.6925238563565344 Q 0.8570405007102272 1.6925238563565344 0.8742390980113636 1.6731140108309661 Q 0.8919290838068181 1.6529670825639207 0.8948774147727272 1.6168500282315343 Q 0.8975800514914771 1.5726250637428978 0.8975800514914771 1.545844390802557 Q 0.8975800514914771 1.519063717862216 0.8974572043678977 1.4995310252130682 Q 0.8973343572443181 1.4799983325639205 0.8968429687499999 1.4556746020951707 Q 0.8948774147727272 1.3849146589133525 0.8929118607954545 1.3286506763139205 Q 0.8926661665482953 1.3207884604048297 0.8970886629971591 1.3171030466974434 Q 0.9015111594460227 1.313417632990057 0.9071621271306818 1.313417632990057 Q 0.9128130948153408 1.313417632990057 0.9174812855113635 1.3171030466974434 Q 0.9221494762073863 1.3207884604048297 0.9219037819602272 1.3286506763139205 Q 0.9209210049715908 1.3652591191406251 0.9207981578480113 1.4008847849786934 Q 0.9206753107244318 1.4365104508167614 0.9204296164772726 1.4716447281605114 Q 0.9199382279829544 1.556900631924716 0.9172355912642045 1.5941233103693184 Q 0.9145329545454545 1.6313459888139206 0.9090048339843749 1.6502644458451705 Q 0.9034767134232954 1.6691829028764207 0.8931575550426135 1.683924557705966 Q 0.870062295809659 1.7168475868252842 0.8309969105113636 1.7168475868252842 Q 0.7663793235085227 1.7168475868252842 0.7504091974431817 1.6453505609019887 Q 0.7452496182528409 1.6229923844105114 0.7452496182528409 1.5954746287286934 L 0.7452496182528409 1.583926999112216 M 1.130896222478693 1.597194488458807 Q 1.1328617764559659 1.6529670825639207 1.1340902476917611 1.6939980218394888 Q 1.1343359419389203 1.702351626242898 1.1299134454900566 1.7064055813210228 Q 1.125490949041193 1.710459536399148 1.1204542169744316 1.710459536399148 Q 1.1154174849076703 1.710459536399148 1.1116092240767044 1.706651275568182 Q 1.1078009632457384 1.702843014737216 1.1078009632457384 1.6952264930752843 L 1.1078009632457384 1.5104644192116479 Q 1.1078009632457384 1.4146436628196024 1.1031327725497158 1.338478446200284 Q 1.1023956898082385 1.3276678993252842 1.109029434481534 1.3234910971235796 Q 1.1117320712002838 1.321771237393466 1.1146804021661931 1.3214026960227274 Q 1.1176287331321022 1.3210341546519888 1.127702197265625 1.3180858236860797 Q 1.1530087047230113 1.310960690518466 1.1779466708096589 1.310960690518466 Q 1.2028846368963066 1.310960690518466 1.2192233043323861 1.3164888110795456 Q 1.2355619717684658 1.3220169316406252 1.247109601384943 1.3333188670099434 Q 1.2716790261008522 1.3573969032315343 1.2716790261008522 1.4043245044389205 Q 1.2716790261008522 1.464765289240057 1.2240143421519885 1.5210292718394889 Q 1.2163978204900567 1.5301199589843753 1.2077985218394884 1.5389649518821025 Q 1.2318765580610793 1.6126732260298298 1.2643081986860794 1.6893298311434661 Q 1.2702048606178975 1.702597320490057 1.2584115367542612 1.7087396766690341 Q 1.2554632057883521 1.7102138421519888 1.2515320978338067 1.7102138421519888 Q 1.2426871049360795 1.7102138421519888 1.239001691228693 1.700140378018466 Q 1.231139475319602 1.6772908130326707 1.2247514248934657 1.6562839549005683 Q 1.2183633744673295 1.635277096768466 1.2122210182883522 1.6153758627485797 Q 1.201410471413352 1.5795045026633525 1.1918283957741476 1.553952300958807 Q 1.1648020285866476 1.5777846429332387 1.130896222478693 1.597194488458807 M 1.1301591397372157 1.5738535349786933 Q 1.1689788307883522 1.551249664240057 1.2028846368963066 1.5124299731889206 Q 1.2483380726207385 1.4596057100497162 1.2483380726207385 1.4065357526633524 Q 1.2483380726207385 1.3515002412997161 1.2097640758167612 1.3355301152343753 Q 1.1886343705610793 1.3266851223366478 1.1559570356889204 1.3330731727627843 Q 1.1404782981178976 1.3360215037286933 1.130650528231534 1.3409353886718751 Q 1.1274565030184658 1.4148893570667616 1.1274565030184658 1.465010983487216 Q 1.1274565030184658 1.5183266351207387 1.1275793501420452 1.5223805901988638 Q 1.127702197265625 1.5264345452769887 1.1278250443892044 1.5297514176136364 Q 1.1279478915127839 1.5330682899502843 1.128193585759943 1.5366308565340911 Q 1.1284392800071021 1.540193423117898 1.1288078213778407 1.5468271677911933 Q 1.1291763627485794 1.5534609124644887 1.1296677512428976 1.5640257650923297 Q 1.1299134454900566 1.5684482615411932 1.1301591397372157 1.5738535349786933 M 1.7063711159446022 1.3129262444957388 Q 1.7122677778764204 1.3129262444957388 1.7171816628196022 1.3178401294389206 Q 1.722095547762784 1.3227540143821024 1.7249210316051136 1.3383555990767046 Q 1.7277465154474432 1.353957183771307 1.7335203302556819 1.3829491049360798 Q 1.7392941450639203 1.4119410261008525 1.746419278231534 1.4448640552201706 Q 1.7535444113991476 1.477787084339489 1.7614066273082385 1.5127985145596592 Q 1.7692688432173296 1.5478099447798297 1.7771310591264204 1.5807329738991478 Q 1.7960495161576704 1.6578809675071025 1.8066143687855112 1.6935066333451707 Q 1.8090713112571022 1.702597320490057 1.8052630504261362 1.708002593927557 Q 1.8014547895951705 1.713407867365057 1.7967865988991476 1.713407867365057 Q 1.792118408203125 1.713407867365057 1.788310147372159 1.7107052306463069 Q 1.784501886541193 1.708002593927557 1.781553555575284 1.694735104580966 Q 1.7786052246093749 1.681467615234375 1.7719714799360795 1.6517386113281252 Q 1.7653377352627841 1.622009607421875 1.7577212136008522 1.5878581070667614 Q 1.757475519353693 1.586383941583807 1.757229825106534 1.5851554703480115 Q 1.7405226162997158 1.5844183876065343 1.7100565296519885 1.5844183876065343 Q 1.6741851695667613 1.5844183876065343 1.6552667125355114 1.5854011645951707 Q 1.6550210182883522 1.586875330078125 1.654775324041193 1.5883494955610797 Q 1.6397879749644886 1.6605836042258524 1.632662841796875 1.700140378018466 Q 1.630205899325284 1.7126707846235798 1.6196410466974431 1.7126707846235798 Q 1.608584805575284 1.7126707846235798 1.606127863103693 1.7018602377485796 Q 1.6053907803622158 1.6986662125355114 1.6076020285866477 1.691786773615057 Q 1.6098132768110796 1.6849073346946024 1.6141129261363636 1.6680772787642046 Q 1.6184125754616476 1.6512472228338069 1.623449307528409 1.6295032819602273 Q 1.6284860395951704 1.607759341086648 1.6341370072798296 1.5819614451349433 Q 1.6397879749644886 1.5561635491832388 1.6456846368963067 1.5288914877485797 Q 1.6515812988281249 1.5016194263139206 1.657477960759943 1.473978823508523 Q 1.6633746226917614 1.4463382207031252 1.6687798961292613 1.4205403247514206 Q 1.6741851695667613 1.394742428799716 1.6789762073863637 1.3721385580610796 Q 1.6837672452059658 1.3495346873224434 1.6867155761718748 1.3362671979758525 Q 1.6913837668678977 1.3129262444957388 1.7063711159446022 1.3129262444957388 M 1.659934903231534 1.562551599609375 Q 1.6786076660156248 1.5635343765980114 1.7103022238991477 1.5635343765980114 Q 1.7365915083451704 1.5635343765980114 1.7523159401633521 1.5627972938565342 Q 1.7471563609730114 1.540439117365057 1.7419967817826705 1.5168524696377843 Q 1.7338888716264205 1.4802440268110797 1.7265180442116477 1.445846832208807 Q 1.714233331853693 1.3895828496093752 1.7053883389559659 1.3470777448508524 Q 1.6997373712713069 1.3753325832741479 1.6891725186434658 1.423980044211648 Q 1.6754136408025568 1.488843325461648 1.6682885076349432 1.5227491315696025 Q 1.6641117054332386 1.543141754083807 1.659934903231534 1.562551599609375 M 2.000742307350852 1.3887229197443183 Q 2.0006194602272727 1.4021132562144887 2.0006194602272727 1.4964598471235797 Q 2.0006194602272727 1.5908064380326705 2.003567791193182 1.6949807988281251 Q 2.003813485440341 1.702843014737216 1.9990224476207386 1.7070198169389206 Q 1.9942314098011362 1.7111966191406252 1.9889489834872158 1.7111966191406252 Q 1.9836665571732954 1.7111966191406252 1.9796126020951703 1.7075112054332389 Q 1.9755586470170454 1.7038257917258524 1.9760500355113635 1.6910496908735797 Q 1.9765414240056818 1.678273590021307 1.9770328125 1.6556697192826706 Q 1.9775242009943181 1.6330658485440344 1.9780155894886362 1.6075136468394888 Q 1.9789983664772728 1.556900631924716 1.9789983664772728 1.5130442088068183 Q 1.9789983664772728 1.4691877856889206 1.978875519353693 1.4447412080965911 Q 1.9787526722301136 1.4202946305042614 1.9782612837357954 1.399656313742898 Q 1.9775242009943181 1.353957183771307 1.9755586470170454 1.3266851223366478 Q 1.9748215642755682 1.318822906427557 1.978384130859375 1.315014645596591 Q 1.9819466974431819 1.3112063847656252 1.9875976651278409 1.3112063847656252 Q 1.9932486328124999 1.3112063847656252 1.9981625177556819 1.315014645596591 Q 2.0030764026988637 1.318822906427557 2.002707861328125 1.3279135935724433 Q 2.0023393199573865 1.3370042807173297 2.0019707785866476 1.345849273615057 Q 2.0016022372159092 1.3546942665127841 2.0012336958451704 1.365013424893466 Q 2.0008651544744316 1.3753325832741479 2.000742307350852 1.3887229197443183 M 2.528183975497159 1.6097248950639207 Q 2.528183975497159 1.6016169849076707 2.5322379305752842 1.5970716413352275 Q 2.536291885653409 1.5925262977627843 2.5415743119673295 1.5925262977627843 Q 2.54685673828125 1.5925262977627843 2.550910693359375 1.59633455859375 Q 2.5549646484375 1.600142819424716 2.554473259943182 1.608005035333807 Q 2.552016317471591 1.6576352732599433 2.527692587002841 1.6878556656605115 Q 2.5043516335227274 1.7168475868252842 2.4692173561789774 1.7168475868252842 Q 2.402879909446023 1.7168475868252842 2.3834700639204547 1.6175871109730116 Q 2.3760992365056817 1.580978668146307 2.3760992365056817 1.531225583096591 Q 2.3760992365056817 1.4814724980468752 2.382241592684659 1.4425299598721593 Q 2.3883839488636363 1.4035874216974433 2.4009143554687498 1.3748411947798296 Q 2.427695028409091 1.313417632990057 2.4770795720880683 1.313417632990057 Q 2.5154078746448865 1.313417632990057 2.533834943181818 1.343638025390625 Q 2.5532447887073864 1.3758239717684662 2.5532447887073864 1.448795163174716 Q 2.5532447887073864 1.456903073330966 2.549559375 1.4609570284090911 Q 2.545873961292614 1.465010983487216 2.540714382102273 1.465010983487216 Q 2.5294124467329544 1.465010983487216 2.5294124467329544 1.4507607171519887 Q 2.5294124467329544 1.359853845703125 2.500420525568182 1.3424095541548298 Q 2.4901013671875 1.3362671979758525 2.476342489346591 1.3362671979758525 Q 2.4625836115056816 1.3362671979758525 2.4516502175071024 1.3440065667613639 Q 2.440716823508523 1.3517459355468753 2.432240371981534 1.3653819662642048 Q 2.4237639204545456 1.3790179969815344 2.417621564275568 1.3975679126420455 Q 2.411479208096591 1.416117828302557 2.4075481001420456 1.437493227805398 Q 2.3996858842329547 1.4807354153053978 2.3996858842329547 1.522871978693182 Q 2.3996858842329547 1.565008542080966 2.4023885209517046 1.590437896661932 Q 2.4050911576704546 1.615867251242898 2.410005042613636 1.633925778409091 Q 2.414918927556818 1.6519843055752843 2.421675519353693 1.663409088068182 Q 2.4284321111505682 1.6748338705610797 2.436540021306818 1.681467615234375 Q 2.450298899147727 1.6930152448508524 2.471674298650568 1.6930152448508524 Q 2.495506640625 1.6930152448508524 2.510739683948864 1.6736053993252842 Q 2.528675363991477 1.6512472228338069 2.528183975497159 1.6097248950639207 M 2.8089191361860792 1.7168475868252842 Q 2.7575690385298293 1.7168475868252842 2.733368155184659 1.6637776294389206 Q 2.7091672718394886 1.610707672052557 2.7091672718394886 1.5070246997514207 Q 2.7091672718394886 1.4252085154474434 2.7369307217684655 1.3696816155894889 Q 2.750689599609375 1.342655248401989 2.770345139382102 1.3265622752130684 Q 2.7900006791548293 1.3104693020241478 2.8156757279829545 1.3104693020241478 Q 2.8413507768110793 1.3104693020241478 2.8605149280894886 1.3238596384943184 Q 2.8796790793678975 1.3372499749644888 2.892209485973011 1.3625564824218752 Q 2.91677891068892 1.4121867203480116 2.9172702991832384 1.5070246997514207 Q 2.9177616876775567 1.6067765640980116 2.888769766512784 1.6623034639559662 Q 2.8602692338423292 1.7168475868252842 2.8089191361860792 1.7168475868252842 M 2.8418421653053976 1.339338376065341 Q 2.83029453568892 1.332090395774148 2.8162899636008523 1.332090395774148 Q 2.802285391512784 1.332090395774148 2.790983456143466 1.339338376065341 Q 2.7796815207741474 1.3465863563565343 2.7704679865056816 1.359362457208807 Q 2.7612544522372158 1.3721385580610796 2.7542521661931816 1.3894600024857957 Q 2.7472498801491474 1.4067814469105115 2.742335995205966 1.4266826809303979 Q 2.732753919566761 1.467467925958807 2.732753919566761 1.5081303238636365 Q 2.732753919566761 1.548792721768466 2.73582509765625 1.5763104774502843 Q 2.7388962757457382 1.6038282331321025 2.7443015491832385 1.6238523142755683 Q 2.7497068226207384 1.6438763954190343 2.757200497159091 1.6572667318892047 Q 2.764694171697443 1.670657068359375 2.773293470348011 1.6787649785156251 Q 2.789263596413352 1.6932609390980116 2.8113760786576703 1.6932609390980116 Q 2.8767307484019886 1.6932609390980116 2.8907353204900565 1.573116452237216 Q 2.8939293457031248 1.5455986965553978 2.8939293457031248 1.5170981638849432 Q 2.8939293457031248 1.4885976312144888 2.892209485973011 1.467222231711648 Q 2.8904896262428976 1.445846832208807 2.8866813654119317 1.4260684453125 Q 2.8828731045809657 1.4062900584161933 2.876853595525568 1.3890914611150569 Q 2.87083408647017 1.3718928638139207 2.8621119406960225 1.3592396100852273 Q 2.853389794921875 1.3465863563565343 2.8418421653053976 1.339338376065341 M 3.112503861860795 1.602845456143466 Q 3.1144694158380677 1.662057769708807 3.1154521928267043 1.6939980218394888 Q 3.115697887073863 1.702351626242898 3.111398237748579 1.7064055813210228 Q 3.107098588423295 1.710459536399148 3.1020618563565336 1.710459536399148 Q 3.097025124289772 1.710459536399148 3.0930940163352267 1.706651275568182 Q 3.0891629083806813 1.702843014737216 3.0891629083806813 1.694489410333807 L 3.0891629083806813 1.6389625104758525 L 3.0889172141335224 1.5627972938565342 L 3.0889172141335224 1.494494293146307 Q 3.0889172141335224 1.4276654579190342 3.0878115900213063 1.4094840836292615 Q 3.0867059659090903 1.3913027093394887 3.0862145774147725 1.3819663279474432 Q 3.085723188920454 1.372629946555398 3.084986106178977 1.3629250237926138 Q 3.0842490234374997 1.3532201010298297 3.083634787819602 1.3438837196377842 Q 3.0830205522017042 1.3345473382457387 3.0848632590553975 1.3311076187855115 Q 3.0867059659090903 1.3276678993252842 3.0894086026278407 1.32607088671875 Q 3.0921112393465906 1.3244738741122162 3.0950595703124995 1.3239824856178979 Q 3.0980079012784087 1.3234910971235796 3.1075899769176134 1.3210341546519888 Q 3.1378103693181814 1.313663327237216 3.161151322798295 1.313663327237216 Q 3.1844922762784087 1.313663327237216 3.2007080965909087 1.3195599891690342 Q 3.2169239169034087 1.3254566511008523 3.228471546519886 1.337495669211648 Q 3.253040971235795 1.3628021766690344 3.253040971235795 1.4097297778764206 Q 3.253040971235795 1.4736102821377843 3.2083246182528407 1.526925933771307 Q 3.172207563920454 1.5699224270241479 3.112503861860795 1.602845456143466 M 3.1117667791193178 1.5795045026633525 Q 3.230437100497159 1.5151326099076705 3.230437100497159 1.4119410261008525 Q 3.230437100497159 1.3551856550071024 3.191126020951704 1.3389698346946024 Q 3.1618884055397722 1.326930816583807 3.120120383522727 1.3411810829190343 Q 3.115206498579545 1.3429009426491478 3.110784002130681 1.3446208023792616 Q 3.109064142400568 1.3876172956321025 3.109064142400568 1.4330707313565343 L 3.109064142400568 1.5072703939985796 Q 3.109064142400568 1.5119385846946025 3.1093098366477268 1.516361081143466 Q 3.109555530894886 1.5207835775923297 3.1096783780184656 1.525820309659091 Q 3.109801225142045 1.5308570417258525 3.110169766512784 1.5388421047585228 Q 3.1105383078835223 1.5468271677911933 3.1110296963778405 1.5588661859019888 Q 3.1112753906249995 1.567465484552557 3.1117667791193178 1.5795045026633525 M 3.436849751420454 1.3887229197443183 Q 3.4367269042968744 1.4021132562144887 3.4367269042968744 1.4964598471235797 Q 3.4367269042968744 1.5908064380326705 3.4396752352627837 1.6949807988281251 Q 3.4399209295099427 1.702843014737216 3.4351298916903406 1.7070198169389206 Q 3.430338853870738 1.7111966191406252 3.4250564275568176 1.7111966191406252 Q 3.419774001242897 1.7111966191406252 3.4157200461647723 1.7075112054332389 Q 3.411666091086647 1.7038257917258524 3.4121574795809653 1.6910496908735797 Q 3.4126488680752836 1.678273590021307 3.413140256569602 1.6556697192826706 Q 3.41363164506392 1.6330658485440344 3.414123033558238 1.6075136468394888 Q 3.4151058105468746 1.556900631924716 3.4151058105468746 1.5130442088068183 Q 3.4151058105468746 1.4691877856889206 3.414982963423295 1.4447412080965911 Q 3.414860116299715 1.4202946305042614 3.4143687278053974 1.399656313742898 Q 3.41363164506392 1.353957183771307 3.411666091086647 1.3266851223366478 Q 3.4109290083451698 1.318822906427557 3.414491574928977 1.315014645596591 Q 3.4180541415127834 1.3112063847656252 3.4237051091974426 1.3112063847656252 Q 3.429356076882102 1.3112063847656252 3.4342699618252834 1.315014645596591 Q 3.4391838467684654 1.318822906427557 3.4388153053977266 1.3279135935724433 Q 3.4384467640269882 1.3370042807173297 3.4380782226562494 1.345849273615057 Q 3.437709681285511 1.3546942665127841 3.437341139914772 1.365013424893466 Q 3.4369725985440334 1.3753325832741479 3.436849751420454 1.3887229197443183 M 3.6437537908380677 1.3119434675071024 Q 3.6587411399147722 1.3119434675071024 3.6587411399147722 1.3333188670099434 Q 3.6587411399147722 1.362310788174716 3.6583725985440334 1.3943738874289775 Q 3.658004057173295 1.426436986683239 3.6577583629261357 1.4524805768821025 Q 3.6575126686789767 1.4785241670809661 3.6572669744318174 1.5131670559303978 Q 3.6567755859374995 1.5851554703480115 3.6562841974431812 1.6898212196377842 Q 3.70517735262784 1.6908039966264206 3.7501393998579537 1.686381500177557 Q 3.758984392755681 1.6853987231889207 3.763898277698863 1.6900669138849433 Q 3.7688121626420448 1.694735104580966 3.7688121626420448 1.699894683771307 Q 3.7688121626420448 1.7050542629616479 3.764389666193181 1.7088625237926138 Q 3.7599671697443178 1.7126707846235798 3.7513678710937493 1.7121793961292615 Q 3.723358726917613 1.7099681479048296 3.6910499334161924 1.7111966191406252 Q 3.6587411399147722 1.7124250903764207 3.652107395241477 1.713407867365057 Q 3.645473650568181 1.7143906443536934 3.6424024724786928 1.7137764087357956 Q 3.639331294389204 1.7131621731178979 3.636874351917613 1.7111966191406252 Q 3.631469078480113 1.7070198169389206 3.631960466974431 1.6989119067826706 Q 3.6349087979403403 1.6414194529474433 3.6349087979403403 1.5486698746448866 Q 3.6349087979403403 1.4559202963423297 3.634785950816761 1.433930661221591 Q 3.6346631036931814 1.4119410261008525 3.634171715198863 1.3935139575639206 Q 3.6331889382102265 1.356905514737216 3.6299949129971583 1.3276678993252842 Q 3.629257830255681 1.3198056834161933 3.6336803267045448 1.3158745754616479 Q 3.6381028231534085 1.3119434675071024 3.6437537908380677 1.3119434675071024 M 4.0085163840553975 1.7168475868252842 Q 3.957166286399147 1.7168475868252842 3.9329654030539767 1.6637776294389206 Q 3.9087645197088063 1.610707672052557 3.9087645197088063 1.5070246997514207 Q 3.9087645197088063 1.4252085154474434 3.9365279696377833 1.3696816155894889 Q 3.9502868474786927 1.342655248401989 3.96994238725142 1.3265622752130684 Q 3.989597927024147 1.3104693020241478 4.015272975852272 1.3104693020241478 Q 4.0409480246803975 1.3104693020241478 4.060112175958806 1.3238596384943184 Q 4.079276327237215 1.3372499749644888 4.091806733842329 1.3625564824218752 Q 4.116376158558238 1.4121867203480116 4.116867547052556 1.5070246997514207 Q 4.117358935546874 1.6067765640980116 4.088367014382102 1.6623034639559662 Q 4.059866481711647 1.7168475868252842 4.0085163840553975 1.7168475868252842 M 4.041439413174715 1.339338376065341 Q 4.029891783558238 1.332090395774148 4.01588721147017 1.332090395774148 Q 4.001882639382101 1.332090395774148 3.9905807040127836 1.339338376065341 Q 3.979278768643465 1.3465863563565343 3.9700652343749994 1.359362457208807 Q 3.9608517001065335 1.3721385580610796 3.9538494140624993 1.3894600024857957 Q 3.946847128018465 1.4067814469105115 3.9419332430752836 1.4266826809303979 Q 3.932351167436079 1.467467925958807 3.932351167436079 1.5081303238636365 Q 3.932351167436079 1.548792721768466 3.9354223455255677 1.5763104774502843 Q 3.938493523615056 1.6038282331321025 3.9438987970525563 1.6238523142755683 Q 3.949304070490056 1.6438763954190343 3.9567977450284086 1.6572667318892047 Q 3.9642914195667607 1.670657068359375 3.9728907182173288 1.6787649785156251 Q 3.98886084428267 1.6932609390980116 4.010973326526988 1.6932609390980116 Q 4.076327996271306 1.6932609390980116 4.090332568359375 1.573116452237216 Q 4.0935265935724425 1.5455986965553978 4.0935265935724425 1.5170981638849432 Q 4.0935265935724425 1.4885976312144888 4.091806733842329 1.467222231711648 Q 4.090086874112215 1.445846832208807 4.086278613281249 1.4260684453125 Q 4.082470352450283 1.4062900584161933 4.076450843394886 1.3890914611150569 Q 4.070431334339488 1.3718928638139207 4.061709188565341 1.3592396100852273 Q 4.052987042791193 1.3465863563565343 4.041439413174715 1.339338376065341 M 4.324631516335227 1.3139090214843752 Q 4.331510955255681 1.3139090214843752 4.4130814453125 1.3119434675071024 Q 4.424383380681817 1.3119434675071024 4.428560182883523 1.3205427661576707 Q 4.429542959872158 1.3229997086292615 4.429542959872158 1.3261937338423297 Q 4.429542959872158 1.329387759055398 4.425857546164773 1.3327046313920456 Q 4.422172132457386 1.3360215037286933 4.412098668323863 1.3357758094815342 Q 4.40202520419034 1.3355301152343753 4.3925659756747155 1.335038726740057 Q 4.383106747159091 1.3345473382457387 4.37499883700284 1.3343016439985798 Q 4.360502876420454 1.3338102555042615 4.350183718039772 1.3340559497514206 Q 4.3482181640625 1.3905656265980115 4.3482181640625 1.4566573790838069 Q 4.3482181640625 1.527417322265625 4.348341011186079 1.5535837595880684 Q 4.348463858309659 1.5797501969105114 4.3489552468039765 1.6035825388849434 Q 4.349692329545454 1.6645147121803978 4.350429412286932 1.6939980218394888 Q 4.350675106534091 1.702351626242898 4.346621151455966 1.7064055813210228 Q 4.342567196377841 1.710459536399148 4.337776158558238 1.710459536399148 Q 4.332985120738636 1.710459536399148 4.328439777166193 1.706651275568182 Q 4.3238944335937495 1.702843014737216 4.3238944335937495 1.6952264930752843 L 4.3236487393465906 1.6630405466974434 L 4.326105681818182 1.4284025406605116 Q 4.326105681818182 1.3628021766690344 4.324385822088068 1.3340559497514206 Q 4.3113640269886355 1.3338102555042615 4.293428346946023 1.335038726740057 Q 4.27229864169034 1.3365128922230114 4.262839413174715 1.3371271278409091 Q 4.253380184659091 1.337741363458807 4.249449076704545 1.3340559497514206 Q 4.24551796875 1.3303705360440343 4.24551796875 1.325579498224432 Q 4.24551796875 1.3207884604048297 4.249449076704545 1.316120269708807 Q 4.253380184659091 1.3114520790127844 4.262102330433239 1.3118206203835228 Q 4.270824476207386 1.3121891617542616 4.277212526633522 1.3124348560014205 Q 4.283600577059659 1.3126805502485797 4.288391614879261 1.3129262444957388 Q 4.293182652698863 1.313171938742898 4.296868066406249 1.313417632990057 Q 4.300553480113636 1.313663327237216 4.304361740944602 1.3137861743607955 Q 4.308170001775568 1.3139090214843752 4.31308388671875 1.3139090214843752 L 4.324631516335227 1.3139090214843752" fill="#1a2f7c" fill-rule="nonzero"></path></g></g><defs><clipPath id="SvgjsClipPath72849"><path d=" M -2.900189710384887 -0.3678094153787377 h 2.575189710384887 v 2.4468154498981005 h -2.575189710384887 Z"></path></clipPath><clipPath id="SvgjsClipPath72847518c1fe6-ae31-4202-a7d4-60044d559aab"><path d=" M -2.900189710384887 -0.3678094153787377 L -0.3250000000000002 -0.3678094153787377 L -0.3250000000000002 2.079006034519363 L -2.900189710384887 2.079006034519363 Z"></path></clipPath></defs></svg>