<svg width="50" height="50" viewBox="0 0 50 50" fill="none" xmlns="http://www.w3.org/2000/svg">
<path d="M14.583 22.9167C14.583 21.8116 15.022 20.7518 15.8034 19.9704C16.5848 19.189 17.6446 18.75 18.7497 18.75H39.583C40.6881 18.75 41.7479 19.189 42.5293 19.9704C43.3107 20.7518 43.7497 21.8116 43.7497 22.9167V35.4167C43.7497 36.5217 43.3107 37.5815 42.5293 38.3629C41.7479 39.1443 40.6881 39.5833 39.583 39.5833H18.7497C17.6446 39.5833 16.5848 39.1443 15.8034 38.3629C15.022 37.5815 14.583 36.5217 14.583 35.4167V22.9167Z" stroke="black" stroke-width="2" stroke-linecap="round" stroke-linejoin="round"/>
<path d="M35.4167 18.7501V14.5834C35.4167 13.4783 34.9777 12.4185 34.1963 11.6371C33.4149 10.8557 32.3551 10.4167 31.25 10.4167H10.4167C9.3116 10.4167 8.25179 10.8557 7.47039 11.6371C6.68899 12.4185 6.25 13.4783 6.25 14.5834V27.0834C6.25 28.1885 6.68899 29.2483 7.47039 30.0297C8.25179 30.8111 9.3116 31.2501 10.4167 31.2501H14.5833M25 29.1667C25 30.2718 25.439 31.3316 26.2204 32.113C27.0018 32.8944 28.0616 33.3334 29.1667 33.3334C30.2717 33.3334 31.3315 32.8944 32.1129 32.113C32.8943 31.3316 33.3333 30.2718 33.3333 29.1667C33.3333 28.0617 32.8943 27.0019 32.1129 26.2205C31.3315 25.4391 30.2717 25.0001 29.1667 25.0001C28.0616 25.0001 27.0018 25.4391 26.2204 26.2205C25.439 27.0019 25 28.0617 25 29.1667Z" stroke="black" stroke-width="2" stroke-linecap="round" stroke-linejoin="round"/>
</svg>
